<?xml version="1.0" encoding="UTF-8" standalone="no"?>
<svg
   xmlns:dc="http://purl.org/dc/elements/1.1/"
   xmlns:cc="http://web.resource.org/cc/"
   xmlns:rdf="http://www.w3.org/1999/02/22-rdf-syntax-ns#"
   xmlns:svg="http://www.w3.org/2000/svg"
   xmlns="http://www.w3.org/2000/svg"
   xmlns:xlink="http://www.w3.org/1999/xlink"
   xmlns:sodipodi="http://sodipodi.sourceforge.net/DTD/sodipodi-0.dtd"
   xmlns:inkscape="http://www.inkscape.org/namespaces/inkscape"
   version="1.1"
   width="945"
   height="630"
   viewBox="-13.5 -9 27 18"
   id="svg2109"
   sodipodi:version="0.32"
   inkscape:version="0.44"
   sodipodi:docname="YEF_logo0.svg"
   sodipodi:docbase="D:\downloads\yef"
   inkscape:export-filename="D:\downloads\yef\YEF_logo0.png"
   inkscape:export-xdpi="28.57"
   inkscape:export-ydpi="28.57">
  <metadata
     id="metadata2150">
    <rdf:RDF>
      <cc:Work
         rdf:about="">
        <dc:format>image/svg+xml</dc:format>
        <dc:type
           rdf:resource="http://purl.org/dc/dcmitype/StillImage" />
      </cc:Work>
    </rdf:RDF>
  </metadata>
  <sodipodi:namedview
     inkscape:window-height="573"
     inkscape:window-width="939"
     inkscape:pageshadow="2"
     inkscape:pageopacity="0.0"
     guidetolerance="10.0"
     gridtolerance="10.0"
     objecttolerance="10.0"
     borderopacity="1.0"
     bordercolor="#666666"
     pagecolor="#ffffff"
     id="base"
     inkscape:zoom="0.5984127"
     inkscape:cx="472.5"
     inkscape:cy="315"
     inkscape:window-x="22"
     inkscape:window-y="29"
     inkscape:current-layer="svg2109" />
  <desc
     id="desc2111">Flag of the European Union</desc>
  <defs
     id="defs2113">
    <g
       id="star">
      <g
         id="cone">
        <path
           id="triangle"
           d="M0,0 v1 h0.5 z"
           transform="translate(0,-1) rotate(18)" />
        <use
           xlink:href="#triangle"
           transform="scale(-1,1)"
           id="use2118" />
      </g>
      <use
         xlink:href="#cone"
         transform="rotate(72)"
         id="use2120" />
      <use
         xlink:href="#cone"
         transform="rotate(144)"
         id="use2122" />
      <use
         xlink:href="#cone"
         transform="rotate(216)"
         id="use2124" />
      <use
         xlink:href="#cone"
         transform="rotate(288)"
         id="use2126" />
    </g>
  </defs>
  <path
     d="M-13.5,-9 v18 h27 v-18 z"
     id="path2128"
     fill="#003399"
     inkscape:export-filename="D:\downloads\yef\YEF_logo.png"
     inkscape:export-xdpi="28.57"
     inkscape:export-ydpi="28.57" />
  <g
     transform="matrix(0.753142,0,0,0.753142,-5.766546,-9.430006)"
     id="g3169"
     inkscape:export-filename="D:\downloads\yef\YEF_logo.png"
     inkscape:export-xdpi="28.57"
     inkscape:export-ydpi="28.57">
    <path
       transform="matrix(1.6569e-2,0,0,1.6569e-2,-0.395489,1.798898)"
       d="M 566.11205 158.64403 A 80.135818 80.135826 0 1 1  405.84041,158.64403 A 80.135818 80.135826 0 1 1  566.11205 158.64403 z"
       sodipodi:ry="80.135826"
       sodipodi:rx="80.135818"
       sodipodi:cy="158.64403"
       sodipodi:cx="485.97623"
       id="path3171"
       style="fill:none;fill-opacity:1;fill-rule:evenodd;stroke:none;stroke-width:1pt;stroke-linecap:butt;stroke-linejoin:miter;stroke-opacity:1"
       sodipodi:type="arc" />
    <g
       id="g3173"
       style="fill:#fc0;fill-opacity:1">
      <path
         style="fill:#fc0;fill-opacity:1;fill-rule:evenodd;stroke:none;stroke-width:1pt;stroke-linecap:butt;stroke-linejoin:miter;stroke-opacity:1"
         d="M 7.6956105,3.4312919 C 7.6956105,4.2597419 7.3642305,4.5496994 7.654188,5.2538819 C 7.819878,5.2953044 7.819878,5.2953044 7.902723,5.3781494 C 8.151258,5.3781494 8.6069055,5.0467694 8.6069055,4.6325444 C 8.6069055,4.2183194 8.068413,3.9697844 7.8613005,3.8040944 C 7.8613005,3.8040944 7.737033,3.7212494 7.6956105,3.4312919 z M 7.737033,3.8040944 C 8.316948,4.3011644 8.8554405,4.6739669 8.0269905,5.2538819 C 8.731173,4.4254319 7.737033,4.0526294 7.737033,3.8040944 z "
         id="path3175" />
      <path
         style="fill:#fc0;fill-opacity:1;fill-rule:evenodd;stroke:none;stroke-width:1pt;stroke-linecap:butt;stroke-linejoin:miter;stroke-opacity:1"
         d="M 7.5299205,3.306812 C 7.5299205,3.969572 6.742893,4.0109945 6.742893,4.632332 C 6.742893,5.2536695 7.3642305,5.3779371 7.4470755,5.377937 C 7.3642305,5.3779371 6.908583,5.046557 6.908583,4.6737545 C 6.908583,4.2595295 7.5299205,3.969572 7.5299205,3.306812 z "
         id="path3177"
         sodipodi:nodetypes="ccccc" />
      <path
         style="fill:#fc0;fill-opacity:1;fill-rule:evenodd;stroke:none;stroke-width:1pt;stroke-linecap:butt;stroke-linejoin:miter;stroke-opacity:1"
         d="M 7.6127655,3.141122 C 7.6127655,4.1766845 7.157118,4.1766845 7.157118,4.632332 C 7.157118,5.0051345 7.488498,5.295092 7.571343,5.295092 C 7.571343,5.1708245 7.322808,4.963712 7.322808,4.632332 C 7.322808,4.218107 7.6127655,4.383797 7.6127655,3.141122 z "
         id="path3179"
         sodipodi:nodetypes="ccccc" />
      <path
         style="fill:#fc0;fill-opacity:1;fill-rule:evenodd;stroke:none;stroke-width:1pt;stroke-linecap:butt;stroke-linejoin:miter;stroke-opacity:1"
         d="M 7.5933505,5.3753454 C 7.5079136,5.5462193 7.4224766,5.5462193 7.4224766,5.6316564 C 7.5933505,5.5462193 7.5933505,5.3753454 7.5933505,5.3753454 z "
         id="path3181"
         sodipodi:nodetypes="ccc" />
      <path
         style="fill:#fc0;fill-opacity:1;fill-rule:evenodd;stroke:none;stroke-width:1pt;stroke-linecap:butt;stroke-linejoin:miter;stroke-opacity:1"
         d="M 7.7417769,5.3826811 C 7.8296592,5.5584456 7.9175414,5.5584456 7.9175414,5.6463279 C 7.7417769,5.5584456 7.7417769,5.3826811 7.7417769,5.3826811 z "
         id="path3183"
         sodipodi:nodetypes="ccc" />
      <path
         style="fill:#fc0;fill-opacity:1;fill-rule:evenodd;stroke:none;stroke-width:1pt;stroke-linecap:butt;stroke-linejoin:miter;stroke-opacity:1"
         d="M 7.6715767,5.3680096 C 7.5910302,5.4485562 7.6715767,5.5291025 7.6715767,5.6096491 C 7.6715767,5.5291025 7.7521231,5.4485562 7.6715767,5.3680096 z "
         id="path3185"
         sodipodi:nodetypes="ccc" />
    </g>
  </g>
  <g
     transform="matrix(0.753142,0,0,0.753142,-8.766545,1.766146)"
     id="g3349"
     inkscape:export-filename="D:\downloads\yef\YEF_logo.png"
     inkscape:export-xdpi="28.57"
     inkscape:export-ydpi="28.57">
    <path
       transform="matrix(1.6569e-2,0,0,1.6569e-2,-0.395489,1.798898)"
       d="M 566.11205 158.64403 A 80.135818 80.135826 0 1 1  405.84041,158.64403 A 80.135818 80.135826 0 1 1  566.11205 158.64403 z"
       sodipodi:ry="80.135826"
       sodipodi:rx="80.135818"
       sodipodi:cy="158.64403"
       sodipodi:cx="485.97623"
       id="path3351"
       style="fill:none;fill-opacity:1;fill-rule:evenodd;stroke:none;stroke-width:1pt;stroke-linecap:butt;stroke-linejoin:miter;stroke-opacity:1"
       sodipodi:type="arc" />
    <g
       id="g3353"
       style="fill:#fc0;fill-opacity:1">
      <path
         style="fill:#fc0;fill-opacity:1;fill-rule:evenodd;stroke:none;stroke-width:1pt;stroke-linecap:butt;stroke-linejoin:miter;stroke-opacity:1"
         d="M 7.6956105,3.4312919 C 7.6956105,4.2597419 7.3642305,4.5496994 7.654188,5.2538819 C 7.819878,5.2953044 7.819878,5.2953044 7.902723,5.3781494 C 8.151258,5.3781494 8.6069055,5.0467694 8.6069055,4.6325444 C 8.6069055,4.2183194 8.068413,3.9697844 7.8613005,3.8040944 C 7.8613005,3.8040944 7.737033,3.7212494 7.6956105,3.4312919 z M 7.737033,3.8040944 C 8.316948,4.3011644 8.8554405,4.6739669 8.0269905,5.2538819 C 8.731173,4.4254319 7.737033,4.0526294 7.737033,3.8040944 z "
         id="path3355" />
      <path
         style="fill:#fc0;fill-opacity:1;fill-rule:evenodd;stroke:none;stroke-width:1pt;stroke-linecap:butt;stroke-linejoin:miter;stroke-opacity:1"
         d="M 7.5299205,3.306812 C 7.5299205,3.969572 6.742893,4.0109945 6.742893,4.632332 C 6.742893,5.2536695 7.3642305,5.3779371 7.4470755,5.377937 C 7.3642305,5.3779371 6.908583,5.046557 6.908583,4.6737545 C 6.908583,4.2595295 7.5299205,3.969572 7.5299205,3.306812 z "
         id="path3357"
         sodipodi:nodetypes="ccccc" />
      <path
         style="fill:#fc0;fill-opacity:1;fill-rule:evenodd;stroke:none;stroke-width:1pt;stroke-linecap:butt;stroke-linejoin:miter;stroke-opacity:1"
         d="M 7.6127655,3.141122 C 7.6127655,4.1766845 7.157118,4.1766845 7.157118,4.632332 C 7.157118,5.0051345 7.488498,5.295092 7.571343,5.295092 C 7.571343,5.1708245 7.322808,4.963712 7.322808,4.632332 C 7.322808,4.218107 7.6127655,4.383797 7.6127655,3.141122 z "
         id="path3359"
         sodipodi:nodetypes="ccccc" />
      <path
         style="fill:#fc0;fill-opacity:1;fill-rule:evenodd;stroke:none;stroke-width:1pt;stroke-linecap:butt;stroke-linejoin:miter;stroke-opacity:1"
         d="M 7.5933505,5.3753454 C 7.5079136,5.5462193 7.4224766,5.5462193 7.4224766,5.6316564 C 7.5933505,5.5462193 7.5933505,5.3753454 7.5933505,5.3753454 z "
         id="path3361"
         sodipodi:nodetypes="ccc" />
      <path
         style="fill:#fc0;fill-opacity:1;fill-rule:evenodd;stroke:none;stroke-width:1pt;stroke-linecap:butt;stroke-linejoin:miter;stroke-opacity:1"
         d="M 7.7417769,5.3826811 C 7.8296592,5.5584456 7.9175414,5.5584456 7.9175414,5.6463279 C 7.7417769,5.5584456 7.7417769,5.3826811 7.7417769,5.3826811 z "
         id="path3363"
         sodipodi:nodetypes="ccc" />
      <path
         style="fill:#fc0;fill-opacity:1;fill-rule:evenodd;stroke:none;stroke-width:1pt;stroke-linecap:butt;stroke-linejoin:miter;stroke-opacity:1"
         d="M 7.6715767,5.3680096 C 7.5910302,5.4485562 7.6715767,5.5291025 7.6715767,5.6096491 C 7.6715767,5.5291025 7.7521231,5.4485562 7.6715767,5.3680096 z "
         id="path3365"
         sodipodi:nodetypes="ccc" />
    </g>
  </g>
  <g
     id="g3241"
     transform="matrix(0.753142,0,0,0.753142,-10.9627,-0.430006)"
     inkscape:export-filename="D:\downloads\yef\YEF_logo.png"
     inkscape:export-xdpi="28.57"
     inkscape:export-ydpi="28.57">
    <path
       sodipodi:type="arc"
       style="fill:none;fill-opacity:1;fill-rule:evenodd;stroke:none;stroke-width:1pt;stroke-linecap:butt;stroke-linejoin:miter;stroke-opacity:1"
       id="path3243"
       sodipodi:cx="485.97623"
       sodipodi:cy="158.64403"
       sodipodi:rx="80.135818"
       sodipodi:ry="80.135826"
       d="M 566.11205 158.64403 A 80.135818 80.135826 0 1 1  405.84041,158.64403 A 80.135818 80.135826 0 1 1  566.11205 158.64403 z"
       transform="matrix(1.6569e-2,0,0,1.6569e-2,-0.395489,1.798898)" />
    <g
       style="fill:#fc0;fill-opacity:1"
       id="g3245">
      <path
         id="path3247"
         d="M 7.6956105,3.4312919 C 7.6956105,4.2597419 7.3642305,4.5496994 7.654188,5.2538819 C 7.819878,5.2953044 7.819878,5.2953044 7.902723,5.3781494 C 8.151258,5.3781494 8.6069055,5.0467694 8.6069055,4.6325444 C 8.6069055,4.2183194 8.068413,3.9697844 7.8613005,3.8040944 C 7.8613005,3.8040944 7.737033,3.7212494 7.6956105,3.4312919 z M 7.737033,3.8040944 C 8.316948,4.3011644 8.8554405,4.6739669 8.0269905,5.2538819 C 8.731173,4.4254319 7.737033,4.0526294 7.737033,3.8040944 z "
         style="fill:#fc0;fill-opacity:1;fill-rule:evenodd;stroke:none;stroke-width:1pt;stroke-linecap:butt;stroke-linejoin:miter;stroke-opacity:1" />
      <path
         sodipodi:nodetypes="ccccc"
         id="path3249"
         d="M 7.5299205,3.306812 C 7.5299205,3.969572 6.742893,4.0109945 6.742893,4.632332 C 6.742893,5.2536695 7.3642305,5.3779371 7.4470755,5.377937 C 7.3642305,5.3779371 6.908583,5.046557 6.908583,4.6737545 C 6.908583,4.2595295 7.5299205,3.969572 7.5299205,3.306812 z "
         style="fill:#fc0;fill-opacity:1;fill-rule:evenodd;stroke:none;stroke-width:1pt;stroke-linecap:butt;stroke-linejoin:miter;stroke-opacity:1" />
      <path
         sodipodi:nodetypes="ccccc"
         id="path3251"
         d="M 7.6127655,3.141122 C 7.6127655,4.1766845 7.157118,4.1766845 7.157118,4.632332 C 7.157118,5.0051345 7.488498,5.295092 7.571343,5.295092 C 7.571343,5.1708245 7.322808,4.963712 7.322808,4.632332 C 7.322808,4.218107 7.6127655,4.383797 7.6127655,3.141122 z "
         style="fill:#fc0;fill-opacity:1;fill-rule:evenodd;stroke:none;stroke-width:1pt;stroke-linecap:butt;stroke-linejoin:miter;stroke-opacity:1" />
      <path
         sodipodi:nodetypes="ccc"
         id="path3253"
         d="M 7.5933505,5.3753454 C 7.5079136,5.5462193 7.4224766,5.5462193 7.4224766,5.6316564 C 7.5933505,5.5462193 7.5933505,5.3753454 7.5933505,5.3753454 z "
         style="fill:#fc0;fill-opacity:1;fill-rule:evenodd;stroke:none;stroke-width:1pt;stroke-linecap:butt;stroke-linejoin:miter;stroke-opacity:1" />
      <path
         sodipodi:nodetypes="ccc"
         id="path3255"
         d="M 7.7417769,5.3826811 C 7.8296592,5.5584456 7.9175414,5.5584456 7.9175414,5.6463279 C 7.7417769,5.5584456 7.7417769,5.3826811 7.7417769,5.3826811 z "
         style="fill:#fc0;fill-opacity:1;fill-rule:evenodd;stroke:none;stroke-width:1pt;stroke-linecap:butt;stroke-linejoin:miter;stroke-opacity:1" />
      <path
         sodipodi:nodetypes="ccc"
         id="path3257"
         d="M 7.6715767,5.3680096 C 7.5910302,5.4485562 7.6715767,5.5291025 7.6715767,5.6096491 C 7.6715767,5.5291025 7.7521231,5.4485562 7.6715767,5.3680096 z "
         style="fill:#fc0;fill-opacity:1;fill-rule:evenodd;stroke:none;stroke-width:1pt;stroke-linecap:butt;stroke-linejoin:miter;stroke-opacity:1" />
    </g>
  </g>
  <g
     id="g3205"
     transform="matrix(0.753142,0,0,0.753142,0.233454,-3.430006)"
     inkscape:export-filename="D:\downloads\yef\YEF_logo.png"
     inkscape:export-xdpi="28.57"
     inkscape:export-ydpi="28.57">
    <path
       sodipodi:type="arc"
       style="fill:none;fill-opacity:1;fill-rule:evenodd;stroke:none;stroke-width:1pt;stroke-linecap:butt;stroke-linejoin:miter;stroke-opacity:1"
       id="path3207"
       sodipodi:cx="485.97623"
       sodipodi:cy="158.64403"
       sodipodi:rx="80.135818"
       sodipodi:ry="80.135826"
       d="M 566.11205 158.64403 A 80.135818 80.135826 0 1 1  405.84041,158.64403 A 80.135818 80.135826 0 1 1  566.11205 158.64403 z"
       transform="matrix(1.6569e-2,0,0,1.6569e-2,-0.395489,1.798898)" />
    <g
       style="fill:#fc0;fill-opacity:1"
       id="g3209">
      <path
         id="path3211"
         d="M 7.6956105,3.4312919 C 7.6956105,4.2597419 7.3642305,4.5496994 7.654188,5.2538819 C 7.819878,5.2953044 7.819878,5.2953044 7.902723,5.3781494 C 8.151258,5.3781494 8.6069055,5.0467694 8.6069055,4.6325444 C 8.6069055,4.2183194 8.068413,3.9697844 7.8613005,3.8040944 C 7.8613005,3.8040944 7.737033,3.7212494 7.6956105,3.4312919 z M 7.737033,3.8040944 C 8.316948,4.3011644 8.8554405,4.6739669 8.0269905,5.2538819 C 8.731173,4.4254319 7.737033,4.0526294 7.737033,3.8040944 z "
         style="fill:#fc0;fill-opacity:1;fill-rule:evenodd;stroke:none;stroke-width:1pt;stroke-linecap:butt;stroke-linejoin:miter;stroke-opacity:1" />
      <path
         sodipodi:nodetypes="ccccc"
         id="path3213"
         d="M 7.5299205,3.306812 C 7.5299205,3.969572 6.742893,4.0109945 6.742893,4.632332 C 6.742893,5.2536695 7.3642305,5.3779371 7.4470755,5.377937 C 7.3642305,5.3779371 6.908583,5.046557 6.908583,4.6737545 C 6.908583,4.2595295 7.5299205,3.969572 7.5299205,3.306812 z "
         style="fill:#fc0;fill-opacity:1;fill-rule:evenodd;stroke:none;stroke-width:1pt;stroke-linecap:butt;stroke-linejoin:miter;stroke-opacity:1" />
      <path
         sodipodi:nodetypes="ccccc"
         id="path3215"
         d="M 7.6127655,3.141122 C 7.6127655,4.1766845 7.157118,4.1766845 7.157118,4.632332 C 7.157118,5.0051345 7.488498,5.295092 7.571343,5.295092 C 7.571343,5.1708245 7.322808,4.963712 7.322808,4.632332 C 7.322808,4.218107 7.6127655,4.383797 7.6127655,3.141122 z "
         style="fill:#fc0;fill-opacity:1;fill-rule:evenodd;stroke:none;stroke-width:1pt;stroke-linecap:butt;stroke-linejoin:miter;stroke-opacity:1" />
      <path
         sodipodi:nodetypes="ccc"
         id="path3217"
         d="M 7.5933505,5.3753454 C 7.5079136,5.5462193 7.4224766,5.5462193 7.4224766,5.6316564 C 7.5933505,5.5462193 7.5933505,5.3753454 7.5933505,5.3753454 z "
         style="fill:#fc0;fill-opacity:1;fill-rule:evenodd;stroke:none;stroke-width:1pt;stroke-linecap:butt;stroke-linejoin:miter;stroke-opacity:1" />
      <path
         sodipodi:nodetypes="ccc"
         id="path3219"
         d="M 7.7417769,5.3826811 C 7.8296592,5.5584456 7.9175414,5.5584456 7.9175414,5.6463279 C 7.7417769,5.5584456 7.7417769,5.3826811 7.7417769,5.3826811 z "
         style="fill:#fc0;fill-opacity:1;fill-rule:evenodd;stroke:none;stroke-width:1pt;stroke-linecap:butt;stroke-linejoin:miter;stroke-opacity:1" />
      <path
         sodipodi:nodetypes="ccc"
         id="path3221"
         d="M 7.6715767,5.3680096 C 7.5910302,5.4485562 7.6715767,5.5291025 7.6715767,5.6096491 C 7.6715767,5.5291025 7.7521231,5.4485562 7.6715767,5.3680096 z "
         style="fill:#fc0;fill-opacity:1;fill-rule:evenodd;stroke:none;stroke-width:1pt;stroke-linecap:butt;stroke-linejoin:miter;stroke-opacity:1" />
    </g>
  </g>
  <g
     id="g3277"
     transform="matrix(0.753142,0,0,0.753142,-10.9627,-6.430006)"
     inkscape:export-filename="D:\downloads\yef\YEF_logo.png"
     inkscape:export-xdpi="28.57"
     inkscape:export-ydpi="28.57">
    <path
       sodipodi:type="arc"
       style="fill:none;fill-opacity:1;fill-rule:evenodd;stroke:none;stroke-width:1pt;stroke-linecap:butt;stroke-linejoin:miter;stroke-opacity:1"
       id="path3279"
       sodipodi:cx="485.97623"
       sodipodi:cy="158.64403"
       sodipodi:rx="80.135818"
       sodipodi:ry="80.135826"
       d="M 566.11205 158.64403 A 80.135818 80.135826 0 1 1  405.84041,158.64403 A 80.135818 80.135826 0 1 1  566.11205 158.64403 z"
       transform="matrix(1.6569e-2,0,0,1.6569e-2,-0.395489,1.798898)" />
    <g
       style="fill:#fc0;fill-opacity:1"
       id="g3281">
      <path
         id="path3283"
         d="M 7.6956105,3.4312919 C 7.6956105,4.2597419 7.3642305,4.5496994 7.654188,5.2538819 C 7.819878,5.2953044 7.819878,5.2953044 7.902723,5.3781494 C 8.151258,5.3781494 8.6069055,5.0467694 8.6069055,4.6325444 C 8.6069055,4.2183194 8.068413,3.9697844 7.8613005,3.8040944 C 7.8613005,3.8040944 7.737033,3.7212494 7.6956105,3.4312919 z M 7.737033,3.8040944 C 8.316948,4.3011644 8.8554405,4.6739669 8.0269905,5.2538819 C 8.731173,4.4254319 7.737033,4.0526294 7.737033,3.8040944 z "
         style="fill:#fc0;fill-opacity:1;fill-rule:evenodd;stroke:none;stroke-width:1pt;stroke-linecap:butt;stroke-linejoin:miter;stroke-opacity:1" />
      <path
         sodipodi:nodetypes="ccccc"
         id="path3285"
         d="M 7.5299205,3.306812 C 7.5299205,3.969572 6.742893,4.0109945 6.742893,4.632332 C 6.742893,5.2536695 7.3642305,5.3779371 7.4470755,5.377937 C 7.3642305,5.3779371 6.908583,5.046557 6.908583,4.6737545 C 6.908583,4.2595295 7.5299205,3.969572 7.5299205,3.306812 z "
         style="fill:#fc0;fill-opacity:1;fill-rule:evenodd;stroke:none;stroke-width:1pt;stroke-linecap:butt;stroke-linejoin:miter;stroke-opacity:1" />
      <path
         sodipodi:nodetypes="ccccc"
         id="path3287"
         d="M 7.6127655,3.141122 C 7.6127655,4.1766845 7.157118,4.1766845 7.157118,4.632332 C 7.157118,5.0051345 7.488498,5.295092 7.571343,5.295092 C 7.571343,5.1708245 7.322808,4.963712 7.322808,4.632332 C 7.322808,4.218107 7.6127655,4.383797 7.6127655,3.141122 z "
         style="fill:#fc0;fill-opacity:1;fill-rule:evenodd;stroke:none;stroke-width:1pt;stroke-linecap:butt;stroke-linejoin:miter;stroke-opacity:1" />
      <path
         sodipodi:nodetypes="ccc"
         id="path3289"
         d="M 7.5933505,5.3753454 C 7.5079136,5.5462193 7.4224766,5.5462193 7.4224766,5.6316564 C 7.5933505,5.5462193 7.5933505,5.3753454 7.5933505,5.3753454 z "
         style="fill:#fc0;fill-opacity:1;fill-rule:evenodd;stroke:none;stroke-width:1pt;stroke-linecap:butt;stroke-linejoin:miter;stroke-opacity:1" />
      <path
         sodipodi:nodetypes="ccc"
         id="path3291"
         d="M 7.7417769,5.3826811 C 7.8296592,5.5584456 7.9175414,5.5584456 7.9175414,5.6463279 C 7.7417769,5.5584456 7.7417769,5.3826811 7.7417769,5.3826811 z "
         style="fill:#fc0;fill-opacity:1;fill-rule:evenodd;stroke:none;stroke-width:1pt;stroke-linecap:butt;stroke-linejoin:miter;stroke-opacity:1" />
      <path
         sodipodi:nodetypes="ccc"
         id="path3293"
         d="M 7.6715767,5.3680096 C 7.5910302,5.4485562 7.6715767,5.5291025 7.6715767,5.6096491 C 7.6715767,5.5291025 7.7521231,5.4485562 7.6715767,5.3680096 z "
         style="fill:#fc0;fill-opacity:1;fill-rule:evenodd;stroke:none;stroke-width:1pt;stroke-linecap:butt;stroke-linejoin:miter;stroke-opacity:1" />
    </g>
  </g>
  <g
     transform="matrix(0.753142,0,0,0.753142,-8.766546,-8.626158)"
     id="g3295"
     inkscape:export-filename="D:\downloads\yef\YEF_logo.png"
     inkscape:export-xdpi="28.57"
     inkscape:export-ydpi="28.57">
    <path
       transform="matrix(1.6569e-2,0,0,1.6569e-2,-0.395489,1.798898)"
       d="M 566.11205 158.64403 A 80.135818 80.135826 0 1 1  405.84041,158.64403 A 80.135818 80.135826 0 1 1  566.11205 158.64403 z"
       sodipodi:ry="80.135826"
       sodipodi:rx="80.135818"
       sodipodi:cy="158.64403"
       sodipodi:cx="485.97623"
       id="path3297"
       style="fill:none;fill-opacity:1;fill-rule:evenodd;stroke:none;stroke-width:1pt;stroke-linecap:butt;stroke-linejoin:miter;stroke-opacity:1"
       sodipodi:type="arc" />
    <g
       id="g3299"
       style="fill:#fc0;fill-opacity:1">
      <path
         style="fill:#fc0;fill-opacity:1;fill-rule:evenodd;stroke:none;stroke-width:1pt;stroke-linecap:butt;stroke-linejoin:miter;stroke-opacity:1"
         d="M 7.6956105,3.4312919 C 7.6956105,4.2597419 7.3642305,4.5496994 7.654188,5.2538819 C 7.819878,5.2953044 7.819878,5.2953044 7.902723,5.3781494 C 8.151258,5.3781494 8.6069055,5.0467694 8.6069055,4.6325444 C 8.6069055,4.2183194 8.068413,3.9697844 7.8613005,3.8040944 C 7.8613005,3.8040944 7.737033,3.7212494 7.6956105,3.4312919 z M 7.737033,3.8040944 C 8.316948,4.3011644 8.8554405,4.6739669 8.0269905,5.2538819 C 8.731173,4.4254319 7.737033,4.0526294 7.737033,3.8040944 z "
         id="path3301" />
      <path
         style="fill:#fc0;fill-opacity:1;fill-rule:evenodd;stroke:none;stroke-width:1pt;stroke-linecap:butt;stroke-linejoin:miter;stroke-opacity:1"
         d="M 7.5299205,3.306812 C 7.5299205,3.969572 6.742893,4.0109945 6.742893,4.632332 C 6.742893,5.2536695 7.3642305,5.3779371 7.4470755,5.377937 C 7.3642305,5.3779371 6.908583,5.046557 6.908583,4.6737545 C 6.908583,4.2595295 7.5299205,3.969572 7.5299205,3.306812 z "
         id="path3303"
         sodipodi:nodetypes="ccccc" />
      <path
         style="fill:#fc0;fill-opacity:1;fill-rule:evenodd;stroke:none;stroke-width:1pt;stroke-linecap:butt;stroke-linejoin:miter;stroke-opacity:1"
         d="M 7.6127655,3.141122 C 7.6127655,4.1766845 7.157118,4.1766845 7.157118,4.632332 C 7.157118,5.0051345 7.488498,5.295092 7.571343,5.295092 C 7.571343,5.1708245 7.322808,4.963712 7.322808,4.632332 C 7.322808,4.218107 7.6127655,4.383797 7.6127655,3.141122 z "
         id="path3305"
         sodipodi:nodetypes="ccccc" />
      <path
         style="fill:#fc0;fill-opacity:1;fill-rule:evenodd;stroke:none;stroke-width:1pt;stroke-linecap:butt;stroke-linejoin:miter;stroke-opacity:1"
         d="M 7.5933505,5.3753454 C 7.5079136,5.5462193 7.4224766,5.5462193 7.4224766,5.6316564 C 7.5933505,5.5462193 7.5933505,5.3753454 7.5933505,5.3753454 z "
         id="path3307"
         sodipodi:nodetypes="ccc" />
      <path
         style="fill:#fc0;fill-opacity:1;fill-rule:evenodd;stroke:none;stroke-width:1pt;stroke-linecap:butt;stroke-linejoin:miter;stroke-opacity:1"
         d="M 7.7417769,5.3826811 C 7.8296592,5.5584456 7.9175414,5.5584456 7.9175414,5.6463279 C 7.7417769,5.5584456 7.7417769,5.3826811 7.7417769,5.3826811 z "
         id="path3309"
         sodipodi:nodetypes="ccc" />
      <path
         style="fill:#fc0;fill-opacity:1;fill-rule:evenodd;stroke:none;stroke-width:1pt;stroke-linecap:butt;stroke-linejoin:miter;stroke-opacity:1"
         d="M 7.6715767,5.3680096 C 7.5910302,5.4485562 7.6715767,5.5291025 7.6715767,5.6096491 C 7.6715767,5.5291025 7.7521231,5.4485562 7.6715767,5.3680096 z "
         id="path3311"
         sodipodi:nodetypes="ccc" />
    </g>
  </g>
  <g
     id="g3331"
     transform="matrix(0.753142,0,0,0.753142,-5.766546,2.569994)"
     inkscape:export-filename="D:\downloads\yef\YEF_logo.png"
     inkscape:export-xdpi="28.57"
     inkscape:export-ydpi="28.57">
    <path
       sodipodi:type="arc"
       style="fill:none;fill-opacity:1;fill-rule:evenodd;stroke:none;stroke-width:1pt;stroke-linecap:butt;stroke-linejoin:miter;stroke-opacity:1"
       id="path3333"
       sodipodi:cx="485.97623"
       sodipodi:cy="158.64403"
       sodipodi:rx="80.135818"
       sodipodi:ry="80.135826"
       d="M 566.11205 158.64403 A 80.135818 80.135826 0 1 1  405.84041,158.64403 A 80.135818 80.135826 0 1 1  566.11205 158.64403 z"
       transform="matrix(1.6569e-2,0,0,1.6569e-2,-0.395489,1.798898)" />
    <g
       style="fill:#fc0;fill-opacity:1"
       id="g3335">
      <path
         id="path3337"
         d="M 7.6956105,3.4312919 C 7.6956105,4.2597419 7.3642305,4.5496994 7.654188,5.2538819 C 7.819878,5.2953044 7.819878,5.2953044 7.902723,5.3781494 C 8.151258,5.3781494 8.6069055,5.0467694 8.6069055,4.6325444 C 8.6069055,4.2183194 8.068413,3.9697844 7.8613005,3.8040944 C 7.8613005,3.8040944 7.737033,3.7212494 7.6956105,3.4312919 z M 7.737033,3.8040944 C 8.316948,4.3011644 8.8554405,4.6739669 8.0269905,5.2538819 C 8.731173,4.4254319 7.737033,4.0526294 7.737033,3.8040944 z "
         style="fill:#fc0;fill-opacity:1;fill-rule:evenodd;stroke:none;stroke-width:1pt;stroke-linecap:butt;stroke-linejoin:miter;stroke-opacity:1" />
      <path
         sodipodi:nodetypes="ccccc"
         id="path3339"
         d="M 7.5299205,3.306812 C 7.5299205,3.969572 6.742893,4.0109945 6.742893,4.632332 C 6.742893,5.2536695 7.3642305,5.3779371 7.4470755,5.377937 C 7.3642305,5.3779371 6.908583,5.046557 6.908583,4.6737545 C 6.908583,4.2595295 7.5299205,3.969572 7.5299205,3.306812 z "
         style="fill:#fc0;fill-opacity:1;fill-rule:evenodd;stroke:none;stroke-width:1pt;stroke-linecap:butt;stroke-linejoin:miter;stroke-opacity:1" />
      <path
         sodipodi:nodetypes="ccccc"
         id="path3341"
         d="M 7.6127655,3.141122 C 7.6127655,4.1766845 7.157118,4.1766845 7.157118,4.632332 C 7.157118,5.0051345 7.488498,5.295092 7.571343,5.295092 C 7.571343,5.1708245 7.322808,4.963712 7.322808,4.632332 C 7.322808,4.218107 7.6127655,4.383797 7.6127655,3.141122 z "
         style="fill:#fc0;fill-opacity:1;fill-rule:evenodd;stroke:none;stroke-width:1pt;stroke-linecap:butt;stroke-linejoin:miter;stroke-opacity:1" />
      <path
         sodipodi:nodetypes="ccc"
         id="path3343"
         d="M 7.5933505,5.3753454 C 7.5079136,5.5462193 7.4224766,5.5462193 7.4224766,5.6316564 C 7.5933505,5.5462193 7.5933505,5.3753454 7.5933505,5.3753454 z "
         style="fill:#fc0;fill-opacity:1;fill-rule:evenodd;stroke:none;stroke-width:1pt;stroke-linecap:butt;stroke-linejoin:miter;stroke-opacity:1" />
      <path
         sodipodi:nodetypes="ccc"
         id="path3345"
         d="M 7.7417769,5.3826811 C 7.8296592,5.5584456 7.9175414,5.5584456 7.9175414,5.6463279 C 7.7417769,5.5584456 7.7417769,5.3826811 7.7417769,5.3826811 z "
         style="fill:#fc0;fill-opacity:1;fill-rule:evenodd;stroke:none;stroke-width:1pt;stroke-linecap:butt;stroke-linejoin:miter;stroke-opacity:1" />
      <path
         sodipodi:nodetypes="ccc"
         id="path3347"
         d="M 7.6715767,5.3680096 C 7.5910302,5.4485562 7.6715767,5.5291025 7.6715767,5.6096491 C 7.6715767,5.5291025 7.7521231,5.4485562 7.6715767,5.3680096 z "
         style="fill:#fc0;fill-opacity:1;fill-rule:evenodd;stroke:none;stroke-width:1pt;stroke-linecap:butt;stroke-linejoin:miter;stroke-opacity:1" />
    </g>
  </g>
  <g
     transform="matrix(0.753142,0,0,0.753142,-2.766546,1.766146)"
     id="g3313"
     inkscape:export-filename="D:\downloads\yef\YEF_logo.png"
     inkscape:export-xdpi="28.57"
     inkscape:export-ydpi="28.57">
    <path
       transform="matrix(1.6569e-2,0,0,1.6569e-2,-0.395489,1.798898)"
       d="M 566.11205 158.64403 A 80.135818 80.135826 0 1 1  405.84041,158.64403 A 80.135818 80.135826 0 1 1  566.11205 158.64403 z"
       sodipodi:ry="80.135826"
       sodipodi:rx="80.135818"
       sodipodi:cy="158.64403"
       sodipodi:cx="485.97623"
       id="path3315"
       style="fill:none;fill-opacity:1;fill-rule:evenodd;stroke:none;stroke-width:1pt;stroke-linecap:butt;stroke-linejoin:miter;stroke-opacity:1"
       sodipodi:type="arc" />
    <g
       id="g3317"
       style="fill:#fc0;fill-opacity:1">
      <path
         style="fill:#fc0;fill-opacity:1;fill-rule:evenodd;stroke:none;stroke-width:1pt;stroke-linecap:butt;stroke-linejoin:miter;stroke-opacity:1"
         d="M 7.6956105,3.4312919 C 7.6956105,4.2597419 7.3642305,4.5496994 7.654188,5.2538819 C 7.819878,5.2953044 7.819878,5.2953044 7.902723,5.3781494 C 8.151258,5.3781494 8.6069055,5.0467694 8.6069055,4.6325444 C 8.6069055,4.2183194 8.068413,3.9697844 7.8613005,3.8040944 C 7.8613005,3.8040944 7.737033,3.7212494 7.6956105,3.4312919 z M 7.737033,3.8040944 C 8.316948,4.3011644 8.8554405,4.6739669 8.0269905,5.2538819 C 8.731173,4.4254319 7.737033,4.0526294 7.737033,3.8040944 z "
         id="path3319" />
      <path
         style="fill:#fc0;fill-opacity:1;fill-rule:evenodd;stroke:none;stroke-width:1pt;stroke-linecap:butt;stroke-linejoin:miter;stroke-opacity:1"
         d="M 7.5299205,3.306812 C 7.5299205,3.969572 6.742893,4.0109945 6.742893,4.632332 C 6.742893,5.2536695 7.3642305,5.3779371 7.4470755,5.377937 C 7.3642305,5.3779371 6.908583,5.046557 6.908583,4.6737545 C 6.908583,4.2595295 7.5299205,3.969572 7.5299205,3.306812 z "
         id="path3321"
         sodipodi:nodetypes="ccccc" />
      <path
         style="fill:#fc0;fill-opacity:1;fill-rule:evenodd;stroke:none;stroke-width:1pt;stroke-linecap:butt;stroke-linejoin:miter;stroke-opacity:1"
         d="M 7.6127655,3.141122 C 7.6127655,4.1766845 7.157118,4.1766845 7.157118,4.632332 C 7.157118,5.0051345 7.488498,5.295092 7.571343,5.295092 C 7.571343,5.1708245 7.322808,4.963712 7.322808,4.632332 C 7.322808,4.218107 7.6127655,4.383797 7.6127655,3.141122 z "
         id="path3323"
         sodipodi:nodetypes="ccccc" />
      <path
         style="fill:#fc0;fill-opacity:1;fill-rule:evenodd;stroke:none;stroke-width:1pt;stroke-linecap:butt;stroke-linejoin:miter;stroke-opacity:1"
         d="M 7.5933505,5.3753454 C 7.5079136,5.5462193 7.4224766,5.5462193 7.4224766,5.6316564 C 7.5933505,5.5462193 7.5933505,5.3753454 7.5933505,5.3753454 z "
         id="path3325"
         sodipodi:nodetypes="ccc" />
      <path
         style="fill:#fc0;fill-opacity:1;fill-rule:evenodd;stroke:none;stroke-width:1pt;stroke-linecap:butt;stroke-linejoin:miter;stroke-opacity:1"
         d="M 7.7417769,5.3826811 C 7.8296592,5.5584456 7.9175414,5.5584456 7.9175414,5.6463279 C 7.7417769,5.5584456 7.7417769,5.3826811 7.7417769,5.3826811 z "
         id="path3327"
         sodipodi:nodetypes="ccc" />
      <path
         style="fill:#fc0;fill-opacity:1;fill-rule:evenodd;stroke:none;stroke-width:1pt;stroke-linecap:butt;stroke-linejoin:miter;stroke-opacity:1"
         d="M 7.6715767,5.3680096 C 7.5910302,5.4485562 7.6715767,5.5291025 7.6715767,5.6096491 C 7.6715767,5.5291025 7.7521231,5.4485562 7.6715767,5.3680096 z "
         id="path3329"
         sodipodi:nodetypes="ccc" />
    </g>
  </g>
  <g
     id="g3150"
     transform="matrix(0.753142,0,0,0.753142,-0.570394,-0.430006)"
     inkscape:export-filename="D:\downloads\yef\YEF_logo.png"
     inkscape:export-xdpi="28.57"
     inkscape:export-ydpi="28.57">
    <path
       sodipodi:type="arc"
       style="fill:none;fill-opacity:1;fill-rule:evenodd;stroke:none;stroke-width:1pt;stroke-linecap:butt;stroke-linejoin:miter;stroke-opacity:1"
       id="path1560"
       sodipodi:cx="485.97623"
       sodipodi:cy="158.64403"
       sodipodi:rx="80.135818"
       sodipodi:ry="80.135826"
       d="M 566.11205 158.64403 A 80.135818 80.135826 0 1 1  405.84041,158.64403 A 80.135818 80.135826 0 1 1  566.11205 158.64403 z"
       transform="matrix(1.6569e-2,0,0,1.6569e-2,-0.395489,1.798898)" />
    <g
       style="fill:#fc0;fill-opacity:1"
       id="g2256">
      <path
         id="path4116"
         d="M 7.6956105,3.4312919 C 7.6956105,4.2597419 7.3642305,4.5496994 7.654188,5.2538819 C 7.819878,5.2953044 7.819878,5.2953044 7.902723,5.3781494 C 8.151258,5.3781494 8.6069055,5.0467694 8.6069055,4.6325444 C 8.6069055,4.2183194 8.068413,3.9697844 7.8613005,3.8040944 C 7.8613005,3.8040944 7.737033,3.7212494 7.6956105,3.4312919 z M 7.737033,3.8040944 C 8.316948,4.3011644 8.8554405,4.6739669 8.0269905,5.2538819 C 8.731173,4.4254319 7.737033,4.0526294 7.737033,3.8040944 z "
         style="fill:#fc0;fill-opacity:1;fill-rule:evenodd;stroke:none;stroke-width:1pt;stroke-linecap:butt;stroke-linejoin:miter;stroke-opacity:1" />
      <path
         sodipodi:nodetypes="ccccc"
         id="path4751"
         d="M 7.5299205,3.306812 C 7.5299205,3.969572 6.742893,4.0109945 6.742893,4.632332 C 6.742893,5.2536695 7.3642305,5.3779371 7.4470755,5.377937 C 7.3642305,5.3779371 6.908583,5.046557 6.908583,4.6737545 C 6.908583,4.2595295 7.5299205,3.969572 7.5299205,3.306812 z "
         style="fill:#fc0;fill-opacity:1;fill-rule:evenodd;stroke:none;stroke-width:1pt;stroke-linecap:butt;stroke-linejoin:miter;stroke-opacity:1" />
      <path
         sodipodi:nodetypes="ccccc"
         id="path5373"
         d="M 7.6127655,3.141122 C 7.6127655,4.1766845 7.157118,4.1766845 7.157118,4.632332 C 7.157118,5.0051345 7.488498,5.295092 7.571343,5.295092 C 7.571343,5.1708245 7.322808,4.963712 7.322808,4.632332 C 7.322808,4.218107 7.6127655,4.383797 7.6127655,3.141122 z "
         style="fill:#fc0;fill-opacity:1;fill-rule:evenodd;stroke:none;stroke-width:1pt;stroke-linecap:butt;stroke-linejoin:miter;stroke-opacity:1" />
      <path
         sodipodi:nodetypes="ccc"
         id="path5997"
         d="M 7.5933505,5.3753454 C 7.5079136,5.5462193 7.4224766,5.5462193 7.4224766,5.6316564 C 7.5933505,5.5462193 7.5933505,5.3753454 7.5933505,5.3753454 z "
         style="fill:#fc0;fill-opacity:1;fill-rule:evenodd;stroke:none;stroke-width:1pt;stroke-linecap:butt;stroke-linejoin:miter;stroke-opacity:1" />
      <path
         sodipodi:nodetypes="ccc"
         id="path6619"
         d="M 7.7417769,5.3826811 C 7.8296592,5.5584456 7.9175414,5.5584456 7.9175414,5.6463279 C 7.7417769,5.5584456 7.7417769,5.3826811 7.7417769,5.3826811 z "
         style="fill:#fc0;fill-opacity:1;fill-rule:evenodd;stroke:none;stroke-width:1pt;stroke-linecap:butt;stroke-linejoin:miter;stroke-opacity:1" />
      <path
         sodipodi:nodetypes="ccc"
         id="path6620"
         d="M 7.6715767,5.3680096 C 7.5910302,5.4485562 7.6715767,5.5291025 7.6715767,5.6096491 C 7.6715767,5.5291025 7.7521231,5.4485562 7.6715767,5.3680096 z "
         style="fill:#fc0;fill-opacity:1;fill-rule:evenodd;stroke:none;stroke-width:1pt;stroke-linecap:butt;stroke-linejoin:miter;stroke-opacity:1" />
    </g>
  </g>
  <g
     transform="matrix(0.753142,0,0,0.753142,-11.76655,-3.430006)"
     id="g3259"
     inkscape:export-filename="D:\downloads\yef\YEF_logo.png"
     inkscape:export-xdpi="28.57"
     inkscape:export-ydpi="28.57">
    <path
       transform="matrix(1.6569e-2,0,0,1.6569e-2,-0.395489,1.798898)"
       d="M 566.11205 158.64403 A 80.135818 80.135826 0 1 1  405.84041,158.64403 A 80.135818 80.135826 0 1 1  566.11205 158.64403 z"
       sodipodi:ry="80.135826"
       sodipodi:rx="80.135818"
       sodipodi:cy="158.64403"
       sodipodi:cx="485.97623"
       id="path3261"
       style="fill:none;fill-opacity:1;fill-rule:evenodd;stroke:none;stroke-width:1pt;stroke-linecap:butt;stroke-linejoin:miter;stroke-opacity:1"
       sodipodi:type="arc" />
    <g
       id="g3263"
       style="fill:#fc0;fill-opacity:1">
      <path
         style="fill:#fc0;fill-opacity:1;fill-rule:evenodd;stroke:none;stroke-width:1pt;stroke-linecap:butt;stroke-linejoin:miter;stroke-opacity:1"
         d="M 7.6956105,3.4312919 C 7.6956105,4.2597419 7.3642305,4.5496994 7.654188,5.2538819 C 7.819878,5.2953044 7.819878,5.2953044 7.902723,5.3781494 C 8.151258,5.3781494 8.6069055,5.0467694 8.6069055,4.6325444 C 8.6069055,4.2183194 8.068413,3.9697844 7.8613005,3.8040944 C 7.8613005,3.8040944 7.737033,3.7212494 7.6956105,3.4312919 z M 7.737033,3.8040944 C 8.316948,4.3011644 8.8554405,4.6739669 8.0269905,5.2538819 C 8.731173,4.4254319 7.737033,4.0526294 7.737033,3.8040944 z "
         id="path3265" />
      <path
         style="fill:#fc0;fill-opacity:1;fill-rule:evenodd;stroke:none;stroke-width:1pt;stroke-linecap:butt;stroke-linejoin:miter;stroke-opacity:1"
         d="M 7.5299205,3.306812 C 7.5299205,3.969572 6.742893,4.0109945 6.742893,4.632332 C 6.742893,5.2536695 7.3642305,5.3779371 7.4470755,5.377937 C 7.3642305,5.3779371 6.908583,5.046557 6.908583,4.6737545 C 6.908583,4.2595295 7.5299205,3.969572 7.5299205,3.306812 z "
         id="path3267"
         sodipodi:nodetypes="ccccc" />
      <path
         style="fill:#fc0;fill-opacity:1;fill-rule:evenodd;stroke:none;stroke-width:1pt;stroke-linecap:butt;stroke-linejoin:miter;stroke-opacity:1"
         d="M 7.6127655,3.141122 C 7.6127655,4.1766845 7.157118,4.1766845 7.157118,4.632332 C 7.157118,5.0051345 7.488498,5.295092 7.571343,5.295092 C 7.571343,5.1708245 7.322808,4.963712 7.322808,4.632332 C 7.322808,4.218107 7.6127655,4.383797 7.6127655,3.141122 z "
         id="path3269"
         sodipodi:nodetypes="ccccc" />
      <path
         style="fill:#fc0;fill-opacity:1;fill-rule:evenodd;stroke:none;stroke-width:1pt;stroke-linecap:butt;stroke-linejoin:miter;stroke-opacity:1"
         d="M 7.5933505,5.3753454 C 7.5079136,5.5462193 7.4224766,5.5462193 7.4224766,5.6316564 C 7.5933505,5.5462193 7.5933505,5.3753454 7.5933505,5.3753454 z "
         id="path3271"
         sodipodi:nodetypes="ccc" />
      <path
         style="fill:#fc0;fill-opacity:1;fill-rule:evenodd;stroke:none;stroke-width:1pt;stroke-linecap:butt;stroke-linejoin:miter;stroke-opacity:1"
         d="M 7.7417769,5.3826811 C 7.8296592,5.5584456 7.9175414,5.5584456 7.9175414,5.6463279 C 7.7417769,5.5584456 7.7417769,5.3826811 7.7417769,5.3826811 z "
         id="path3273"
         sodipodi:nodetypes="ccc" />
      <path
         style="fill:#fc0;fill-opacity:1;fill-rule:evenodd;stroke:none;stroke-width:1pt;stroke-linecap:butt;stroke-linejoin:miter;stroke-opacity:1"
         d="M 7.6715767,5.3680096 C 7.5910302,5.4485562 7.6715767,5.5291025 7.6715767,5.6096491 C 7.6715767,5.5291025 7.7521231,5.4485562 7.6715767,5.3680096 z "
         id="path3275"
         sodipodi:nodetypes="ccc" />
    </g>
  </g>
  <g
     transform="matrix(0.753142,0,0,0.753142,-0.570394,-6.430006)"
     id="g3223"
     inkscape:export-filename="D:\downloads\yef\YEF_logo.png"
     inkscape:export-xdpi="28.57"
     inkscape:export-ydpi="28.57">
    <path
       transform="matrix(1.6569e-2,0,0,1.6569e-2,-0.395489,1.798898)"
       d="M 566.11205 158.64403 A 80.135818 80.135826 0 1 1  405.84041,158.64403 A 80.135818 80.135826 0 1 1  566.11205 158.64403 z"
       sodipodi:ry="80.135826"
       sodipodi:rx="80.135818"
       sodipodi:cy="158.64403"
       sodipodi:cx="485.97623"
       id="path3225"
       style="fill:none;fill-opacity:1;fill-rule:evenodd;stroke:none;stroke-width:1pt;stroke-linecap:butt;stroke-linejoin:miter;stroke-opacity:1"
       sodipodi:type="arc" />
    <g
       id="g3227"
       style="fill:#fc0;fill-opacity:1">
      <path
         style="fill:#fc0;fill-opacity:1;fill-rule:evenodd;stroke:none;stroke-width:1pt;stroke-linecap:butt;stroke-linejoin:miter;stroke-opacity:1"
         d="M 7.6956105,3.4312919 C 7.6956105,4.2597419 7.3642305,4.5496994 7.654188,5.2538819 C 7.819878,5.2953044 7.819878,5.2953044 7.902723,5.3781494 C 8.151258,5.3781494 8.6069055,5.0467694 8.6069055,4.6325444 C 8.6069055,4.2183194 8.068413,3.9697844 7.8613005,3.8040944 C 7.8613005,3.8040944 7.737033,3.7212494 7.6956105,3.4312919 z M 7.737033,3.8040944 C 8.316948,4.3011644 8.8554405,4.6739669 8.0269905,5.2538819 C 8.731173,4.4254319 7.737033,4.0526294 7.737033,3.8040944 z "
         id="path3229" />
      <path
         style="fill:#fc0;fill-opacity:1;fill-rule:evenodd;stroke:none;stroke-width:1pt;stroke-linecap:butt;stroke-linejoin:miter;stroke-opacity:1"
         d="M 7.5299205,3.306812 C 7.5299205,3.969572 6.742893,4.0109945 6.742893,4.632332 C 6.742893,5.2536695 7.3642305,5.3779371 7.4470755,5.377937 C 7.3642305,5.3779371 6.908583,5.046557 6.908583,4.6737545 C 6.908583,4.2595295 7.5299205,3.969572 7.5299205,3.306812 z "
         id="path3231"
         sodipodi:nodetypes="ccccc" />
      <path
         style="fill:#fc0;fill-opacity:1;fill-rule:evenodd;stroke:none;stroke-width:1pt;stroke-linecap:butt;stroke-linejoin:miter;stroke-opacity:1"
         d="M 7.6127655,3.141122 C 7.6127655,4.1766845 7.157118,4.1766845 7.157118,4.632332 C 7.157118,5.0051345 7.488498,5.295092 7.571343,5.295092 C 7.571343,5.1708245 7.322808,4.963712 7.322808,4.632332 C 7.322808,4.218107 7.6127655,4.383797 7.6127655,3.141122 z "
         id="path3233"
         sodipodi:nodetypes="ccccc" />
      <path
         style="fill:#fc0;fill-opacity:1;fill-rule:evenodd;stroke:none;stroke-width:1pt;stroke-linecap:butt;stroke-linejoin:miter;stroke-opacity:1"
         d="M 7.5933505,5.3753454 C 7.5079136,5.5462193 7.4224766,5.5462193 7.4224766,5.6316564 C 7.5933505,5.5462193 7.5933505,5.3753454 7.5933505,5.3753454 z "
         id="path3235"
         sodipodi:nodetypes="ccc" />
      <path
         style="fill:#fc0;fill-opacity:1;fill-rule:evenodd;stroke:none;stroke-width:1pt;stroke-linecap:butt;stroke-linejoin:miter;stroke-opacity:1"
         d="M 7.7417769,5.3826811 C 7.8296592,5.5584456 7.9175414,5.5584456 7.9175414,5.6463279 C 7.7417769,5.5584456 7.7417769,5.3826811 7.7417769,5.3826811 z "
         id="path3237"
         sodipodi:nodetypes="ccc" />
      <path
         style="fill:#fc0;fill-opacity:1;fill-rule:evenodd;stroke:none;stroke-width:1pt;stroke-linecap:butt;stroke-linejoin:miter;stroke-opacity:1"
         d="M 7.6715767,5.3680096 C 7.5910302,5.4485562 7.6715767,5.5291025 7.6715767,5.6096491 C 7.6715767,5.5291025 7.7521231,5.4485562 7.6715767,5.3680096 z "
         id="path3239"
         sodipodi:nodetypes="ccc" />
    </g>
  </g>
  <g
     transform="matrix(0.753142,0,0,0.753142,-2.766545,-8.626158)"
     id="g3187"
     inkscape:export-filename="D:\downloads\yef\YEF_logo.png"
     inkscape:export-xdpi="28.57"
     inkscape:export-ydpi="28.57">
    <path
       transform="matrix(1.6569e-2,0,0,1.6569e-2,-0.395489,1.798898)"
       d="M 566.11205 158.64403 A 80.135818 80.135826 0 1 1  405.84041,158.64403 A 80.135818 80.135826 0 1 1  566.11205 158.64403 z"
       sodipodi:ry="80.135826"
       sodipodi:rx="80.135818"
       sodipodi:cy="158.64403"
       sodipodi:cx="485.97623"
       id="path3189"
       style="fill:none;fill-opacity:1;fill-rule:evenodd;stroke:none;stroke-width:1pt;stroke-linecap:butt;stroke-linejoin:miter;stroke-opacity:1"
       sodipodi:type="arc" />
    <g
       id="g3191"
       style="fill:#fc0;fill-opacity:1">
      <path
         style="fill:#fc0;fill-opacity:1;fill-rule:evenodd;stroke:none;stroke-width:1pt;stroke-linecap:butt;stroke-linejoin:miter;stroke-opacity:1"
         d="M 7.6956105,3.4312919 C 7.6956105,4.2597419 7.3642305,4.5496994 7.654188,5.2538819 C 7.819878,5.2953044 7.819878,5.2953044 7.902723,5.3781494 C 8.151258,5.3781494 8.6069055,5.0467694 8.6069055,4.6325444 C 8.6069055,4.2183194 8.068413,3.9697844 7.8613005,3.8040944 C 7.8613005,3.8040944 7.737033,3.7212494 7.6956105,3.4312919 z M 7.737033,3.8040944 C 8.316948,4.3011644 8.8554405,4.6739669 8.0269905,5.2538819 C 8.731173,4.4254319 7.737033,4.0526294 7.737033,3.8040944 z "
         id="path3193" />
      <path
         style="fill:#fc0;fill-opacity:1;fill-rule:evenodd;stroke:none;stroke-width:1pt;stroke-linecap:butt;stroke-linejoin:miter;stroke-opacity:1"
         d="M 7.5299205,3.306812 C 7.5299205,3.969572 6.742893,4.0109945 6.742893,4.632332 C 6.742893,5.2536695 7.3642305,5.3779371 7.4470755,5.377937 C 7.3642305,5.3779371 6.908583,5.046557 6.908583,4.6737545 C 6.908583,4.2595295 7.5299205,3.969572 7.5299205,3.306812 z "
         id="path3195"
         sodipodi:nodetypes="ccccc" />
      <path
         style="fill:#fc0;fill-opacity:1;fill-rule:evenodd;stroke:none;stroke-width:1pt;stroke-linecap:butt;stroke-linejoin:miter;stroke-opacity:1"
         d="M 7.6127655,3.141122 C 7.6127655,4.1766845 7.157118,4.1766845 7.157118,4.632332 C 7.157118,5.0051345 7.488498,5.295092 7.571343,5.295092 C 7.571343,5.1708245 7.322808,4.963712 7.322808,4.632332 C 7.322808,4.218107 7.6127655,4.383797 7.6127655,3.141122 z "
         id="path3197"
         sodipodi:nodetypes="ccccc" />
      <path
         style="fill:#fc0;fill-opacity:1;fill-rule:evenodd;stroke:none;stroke-width:1pt;stroke-linecap:butt;stroke-linejoin:miter;stroke-opacity:1"
         d="M 7.5933505,5.3753454 C 7.5079136,5.5462193 7.4224766,5.5462193 7.4224766,5.6316564 C 7.5933505,5.5462193 7.5933505,5.3753454 7.5933505,5.3753454 z "
         id="path3199"
         sodipodi:nodetypes="ccc" />
      <path
         style="fill:#fc0;fill-opacity:1;fill-rule:evenodd;stroke:none;stroke-width:1pt;stroke-linecap:butt;stroke-linejoin:miter;stroke-opacity:1"
         d="M 7.7417769,5.3826811 C 7.8296592,5.5584456 7.9175414,5.5584456 7.9175414,5.6463279 C 7.7417769,5.5584456 7.7417769,5.3826811 7.7417769,5.3826811 z "
         id="path3201"
         sodipodi:nodetypes="ccc" />
      <path
         style="fill:#fc0;fill-opacity:1;fill-rule:evenodd;stroke:none;stroke-width:1pt;stroke-linecap:butt;stroke-linejoin:miter;stroke-opacity:1"
         d="M 7.6715767,5.3680096 C 7.5910302,5.4485562 7.6715767,5.5291025 7.6715767,5.6096491 C 7.6715767,5.5291025 7.7521231,5.4485562 7.6715767,5.3680096 z "
         id="path3203"
         sodipodi:nodetypes="ccc" />
    </g>
  </g>
  <flowRoot
     xml:space="preserve"
     id="flowRoot2302"
     style="font-family:Times New Roman;font-weight:normal;font-style:normal;font-stretch:normal;font-variant:normal;font-size:1.14285714;text-anchor:middle;text-align:center;writing-mode:lr;line-height:100%"
     inkscape:export-filename="D:\downloads\yef\YEF_logo.png"
     inkscape:export-xdpi="28.57"
     inkscape:export-ydpi="28.57"><flowRegion
       id="flowRegion2304"><rect
         id="rect2306"
         width="28.503979"
         height="14.848806"
         x="-8.3912468"
         y="-2.0291777"
         style="font-family:Times New Roman;font-weight:normal;font-style:normal;font-stretch:normal;font-variant:normal;font-size:1.14285714;text-anchor:middle;text-align:center;writing-mode:lr;line-height:100%" /></flowRegion><flowPara
       id="flowPara2310" /></flowRoot></svg>
